HIERARCHY
ROOT joint_Root
{
	OFFSET 0.0 0.0 0.0
	CHANNELS 6 Xposition Yposition Zposition Zrotation Xrotation Yrotation 
	JOINT Hips
	{
		OFFSET -0.726466 93.3139 -2.00062
		CHANNELS 6 Xposition Yposition Zposition Zrotation Xrotation Yrotation 
		JOINT Spine
		{
			OFFSET 15.7357 0.0 0.0
			CHANNELS 6 Xposition Yposition Zposition Zrotation Xrotation Yrotation 
			JOINT Chest
			{
				OFFSET 8.98455 -0.406207 0.0
				CHANNELS 6 Xposition Yposition Zposition Zrotation Xrotation Yrotation 
				JOINT Neck
				{
					OFFSET 16.3773 0.0 0.0
					CHANNELS 6 Xposition Yposition Zposition Zrotation Xrotation Yrotation 
					JOINT Head
					{
						OFFSET 6.45672 0.0 0.0
						CHANNELS 6 Xposition Yposition Zposition Zrotation Xrotation Yrotation 
						End Site
						{
							OFFSET 0.0 0.0 0.0
						}
					}
				}
				JOINT Shoulder_L
				{
					OFFSET 12.9942 -0.242716 4.98039
					CHANNELS 6 Xposition Yposition Zposition Zrotation Xrotation Yrotation 
					JOINT UpperArm_L
					{
						OFFSET 5.34809 0.0 0.0
						CHANNELS 6 Xposition Yposition Zposition Zrotation Xrotation Yrotation 
						JOINT LowerArm_L
						{
							OFFSET 24.3286 1.87007e-05 0.0
							CHANNELS 6 Xposition Yposition Zposition Zrotation Xrotation Yrotation 
							JOINT Hand_L
							{
								OFFSET 22.2916 0.0 0.0
								CHANNELS 6 Xposition Yposition Zposition Zrotation Xrotation Yrotation 
								End Site
								{
									OFFSET 0.0 0.0 0.0
								}
							}
						}
					}
				}
				JOINT Shoulder_R
				{
					OFFSET 12.9945 -0.242716 -4.98039
					CHANNELS 6 Xposition Yposition Zposition Zrotation Xrotation Yrotation 
					JOINT UpperArm_R
					{
						OFFSET -5.34813 0.0 0.0
						CHANNELS 6 Xposition Yposition Zposition Zrotation Xrotation Yrotation 
						JOINT LowerArm_R
						{
							OFFSET -24.3289 0.000322201 0.0
							CHANNELS 6 Xposition Yposition Zposition Zrotation Xrotation Yrotation 
							JOINT Hand_R
							{
								OFFSET -22.2915 -0.000108084 0.0
								CHANNELS 6 Xposition Yposition Zposition Zrotation Xrotation Yrotation 
								End Site
								{
									OFFSET 0.0 0.0 0.0
								}
							}
						}
					}
				}
			}
		}
		JOINT UpperLeg_L
		{
			OFFSET -2.19248 -6.46944 0.0
			CHANNELS 6 Xposition Yposition Zposition Zrotation Xrotation Yrotation 
			JOINT LowerLeg_L
			{
				OFFSET 39.0811 0.0 -1.23785e-05
				CHANNELS 6 Xposition Yposition Zposition Zrotation Xrotation Yrotation 
				JOINT Foot_L
				{
					OFFSET 40.9854 0.0 -1.26872e-05
					CHANNELS 6 Xposition Yposition Zposition Zrotation Xrotation Yrotation 
					JOINT Toes_L
					{
						OFFSET 11.7543 0.0 0.0
						CHANNELS 6 Xposition Yposition Zposition Zrotation Xrotation Yrotation 
						End Site
						{
							OFFSET 0.0 0.0 0.0
						}
					}
				}
			}
		}
		JOINT UpperLeg_R
		{
			OFFSET -2.19251 6.46944 0.0
			CHANNELS 6 Xposition Yposition Zposition Zrotation Xrotation Yrotation 
			JOINT LowerLeg_R
			{
				OFFSET -39.0811 -0.00228153 -0.0401928
				CHANNELS 6 Xposition Yposition Zposition Zrotation Xrotation Yrotation 
				JOINT Foot_R
				{
					OFFSET -40.9854 0.0 0.0
					CHANNELS 6 Xposition Yposition Zposition Zrotation Xrotation Yrotation 
					JOINT Toes_R
					{
						OFFSET -11.7543 0.0 0.0
						CHANNELS 6 Xposition Yposition Zposition Zrotation Xrotation Yrotation 
						End Site
						{
							OFFSET 0.0 0.0 0.0
						}
					}
				}
			}
		}
	}
}
MOTION
Frames:	4
Frame Time:	0.0333333
0.000000 0.000000 0.000000 0.000000 0.000000 -0.000000 -213.892000 89.456000 197.471000 52.571300 86.434600 39.321300 15.735700 0.000005 -0.000001 84.318300 81.414600 -82.382500 8.984550 -0.406207 -0.000000 9.354540 -1.663590 4.004740 16.377300 -0.000001 -0.000001 7.569550 -1.803810 -0.019139 6.456720 -0.000001 -0.000000 2.558440 -0.879575 -1.956550 12.994200 -0.242716 4.980390 -88.854100 -2.937290 -68.678900 5.348090 -0.000007 -0.000001 -65.016000 30.384300 -2.204730 24.328600 0.000019 0.000005 5.615120 6.763910 -39.854800 22.291600 -0.000001 0.000005 1.075700 5.595830 -11.094100 12.994500 -0.242716 -4.980390 88.557800 3.492710 -67.548200 -5.348130 -0.000001 -0.000004 -51.704800 32.450900 -18.716400 -24.328900 0.000322 -0.000009 -1.563200 -2.689030 -30.166900 -22.291500 -0.000108 -0.000004 3.064670 5.562220 -9.296680 -2.192480 -6.469440 -0.000000 -171.410000 -8.882530 -13.198300 39.081100 -0.000007 -0.000012 0.185154 -0.076220 67.623800 40.985400 -0.000006 -0.000013 2.424080 -3.470370 -57.483800 11.754300 -0.000000 0.000003 -0.004822 -0.059737 -19.007300 -2.192510 6.469440 -0.000001 -177.307000 21.416800 162.479000 -39.081100 -0.002282 -0.040193 -0.191597 0.252944 37.612800 -40.985400 0.000008 0.000006 0.635862 -5.409170 -68.856700 -11.754300 -0.000006 -0.000006 -0.010341 -0.106166 -20.899100
0.000000 0.000000 0.000000 0.000000 0.000000 -0.000000 -210.951000 90.339000 197.751000 71.723500 84.953500 20.418300 15.735700 0.000005 -0.000001 89.359900 81.473200 -88.010800 8.984550 -0.406207 -0.000000 9.290070 -0.171520 2.709950 16.377300 -0.000001 -0.000001 7.949360 -1.243550 -0.081059 6.456720 -0.000001 -0.000000 2.798110 -1.760620 -1.783340 12.994200 -0.242716 4.980390 -88.649300 -3.251360 -67.426300 5.348090 -0.000007 -0.000001 -66.765400 29.723700 0.109228 24.328600 0.000019 0.000005 6.165470 7.796210 -38.532400 22.291600 -0.000001 0.000005 0.461514 5.586940 -10.587700 12.994500 -0.242716 -4.980390 88.811900 3.063420 -68.791300 -5.348130 -0.000001 -0.000004 -51.428000 32.329000 -22.635800 -24.328900 0.000322 -0.000009 -1.169840 -2.062740 -29.544800 -22.291500 -0.000108 -0.000004 3.476550 5.560690 -9.222410 -2.192480 -6.469440 -0.000000 -172.929000 -11.603200 -16.914000 39.081100 -0.000007 -0.000012 0.185531 -0.086907 64.899200 40.985400 -0.000006 -0.000013 0.620436 0.260978 -58.498300 11.754300 -0.000000 0.000003 -0.004856 -0.060078 -19.021100 -2.192510 6.469440 -0.000001 -178.774000 21.003200 167.057000 -39.081100 -0.002282 -0.040193 -0.165163 0.253559 33.599100 -40.985400 0.000008 0.000006 0.208754 -3.752870 -68.854400 -11.754300 -0.000006 -0.000006 -0.010924 -0.110414 -21.072900
0.000000 0.000000 0.000000 0.000000 0.000000 -0.000000 -208.019000 90.907400 197.968000 79.807000 83.029200 12.591400 15.735700 0.000005 -0.000001 94.763900 81.393600 -93.886200 8.984550 -0.406207 -0.000000 9.379060 1.433820 1.636500 16.377300 -0.000001 -0.000001 8.276240 -0.707963 -0.220843 6.456720 -0.000001 -0.000000 2.948130 -2.531880 -1.510150 12.994200 -0.242716 4.980390 -88.578800 -3.201340 -66.045100 5.348090 -0.000007 -0.000001 -67.656800 29.040800 2.095180 24.328600 0.000019 0.000005 6.325140 8.170630 -37.951600 22.291600 -0.000001 0.000005 0.070757 5.579580 -10.189700 12.994500 -0.242716 -4.980390 89.034800 2.634660 -69.872600 -5.348130 -0.000001 -0.000004 -50.539000 32.091400 -26.364800 -24.328900 0.000322 -0.000009 -1.314900 -2.269950 -30.071500 -22.291500 -0.000108 -0.000004 3.760090 5.557120 -9.046380 -2.192480 -6.469440 -0.000000 -174.204000 -14.606800 -19.829200 39.081100 -0.000007 -0.000012 0.167503 -0.098422 59.561200 40.985400 -0.000006 -0.000013 -1.156960 2.736140 -59.116500 11.754300 -0.000000 0.000003 -0.004384 -0.055381 -18.829700 -2.192510 6.469440 -0.000001 179.922000 20.167400 171.256000 -39.081100 -0.002282 -0.040193 -0.142033 0.250016 30.169700 -40.985400 0.000008 0.000006 -0.223269 -2.372240 -69.042000 -11.754300 -0.000006 -0.000006 -0.011171 -0.112189 -21.145500
0.000000 0.000000 0.000000 0.000000 0.000000 -0.000000 -205.183000 91.136700 198.183000 82.841700 81.063000 9.664100 15.735700 0.000005 -0.000001 99.643600 81.216100 -99.133400 8.984550 -0.406207 -0.000000 9.549730 2.933710 0.774510 16.377300 -0.000001 -0.000001 8.441610 -0.157959 -0.518535 6.456720 -0.000001 -0.000000 3.109550 -3.111330 -1.088030 12.994200 -0.242716 4.980390 -88.630500 -2.898670 -64.696700 5.348090 -0.000007 -0.000001 -67.950200 28.193400 3.897530 24.328600 0.000019 0.000005 6.155380 7.969790 -37.876600 22.291600 -0.000001 0.000005 0.031435 5.575710 -9.984180 12.994500 -0.242716 -4.980390 89.192700 2.330770 -70.891300 -5.348130 -0.000001 -0.000004 -48.822800 31.744800 -30.102200 -24.328900 0.000322 -0.000009 -1.670810 -2.732560 -31.441200 -22.291500 -0.000108 -0.000004 4.078010 5.556240 -9.003870 -2.192480 -6.469440 -0.000000 -175.395000 -17.270800 -22.073300 39.081100 -0.000007 -0.000012 0.126464 -0.099786 51.723800 40.985400 -0.000006 -0.000013 -1.511480 2.716390 -59.531300 11.754300 -0.000000 0.000003 -0.003866 -0.050044 -18.612400 -2.192510 6.469440 -0.000001 178.833000 19.464200 174.699000 -39.081100 -0.002282 -0.040193 -0.139884 0.272741 27.699900 -40.985400 0.000008 0.000006 -0.668647 -0.861166 -69.593800 -11.754300 -0.000006 -0.000006 -0.011925 -0.117499 -21.362900
